/* XPM */
static char *bottom_active[] = {
/* columns rows colors chars-per-pixel */
"1 7 3 1 ",
"  c black",
". c #606060",
"X c None",
/* pixels */
" ",
".",
"X",
"X",
" ",
" ",
" "
};
