/* XPM */
static char * bottom_left_inactive_xpm[] = {
"6 7 2 1",
" 	c None",
".	c #525252",
".     ",
".     ",
".     ",
".     ",
".     ",
"......",
"  ...."};
