/* XPM */
static char * bottom_left_active_xpm[] = {
"6 7 3 1",
" 	c None",
".	c #000000",
"+	c #313131",
".   ++",
".   ++",
".     ",
".     ",
".     ",
"......",
"  ...."};
