/* XPM */
static char * bottom_right_inactive_xpm[] = {
"7 7 2 1",
" 	c None",
".	c #525252",
"     ..",
"     ..",
"     ..",
"     ..",
"     ..",
".......",
"......."};
