/* XPM */
static char *bottom_left_inactive[] = {
/* columns rows colors chars-per-pixel */
"6 7 2 1 ",
"  c black",
". c None",
/* pixels */
" .... ",
" .....",
" .....",
" .....",
" .....",
"      ",
"..    "
};
