/* XPM */
static char * close_pressed_xpm[] = {
"17 22 13 1",
" 	c None",
".	c #212121",
"+	c #282628",
"@	c #2D2D2D",
"#	c #2D2D2F",
"$	c #2F2F30",
"%	c #303030",
"&	c #2F2F2F",
"*	c #282829",
"=	c #3A3A3A",
"-	c #292929",
";	c #333334",
">	c #363637",
"                 ",
"                 ",
"                 ",
"                 ",
"                 ",
" ...........     ",
" .         +     ",
" .         @     ",
" .         #     ",
" .         $     ",
" .         %     ",
" .         @     ",
" .         &     ",
" .         &     ",
" .         @     ",
" .*=-;>%@$@.     ",
"                 ",
"                 ",
"                 ",
"                 ",
"                 ",
"                 "};
