/* XPM */
static char *close_pressed[] = {
/* columns rows colors chars-per-pixel */
"17 22 13 1 ",
"  c #858585",
". c #898988",
"X c #8C8C8B",
"o c #8F8F8F",
"O c #90908F",
"+ c #909090",
"@ c #929290",
"# c #929292",
"$ c #969696",
"% c #979796",
"& c #979997",
"* c #9E9E9E",
"= c None",
/* pixels */
"=================",
"=================",
"=================",
"=================",
"=================",
"===***********===",
"===*=========&===",
"===*=========#===",
"===*=========#===",
"===*=========O===",
"===*=========o===",
"===*=========#===",
"===*=========o===",
"===*=========#===",
"===*=========#===",
"===*$ $X.o#O#*===",
"=================",
"=================",
"=================",
"=================",
"=================",
"================="
};
