/* XPM */
static char * close_pressed_xpm[] = {
"21 22 10 1",
" 	c None",
".	c #9E9E9E",
"+	c #979997",
"@	c #929292",
"#	c #90908F",
"$	c #8F8F8F",
"%	c #969696",
"&	c #858585",
"*	c #8C8C8B",
"=	c #898988",
"                     ",
"                     ",
"                     ",
"                     ",
"                     ",
"   ...........       ",
"   .         +       ",
"   .         @       ",
"   .         @       ",
"   .         #       ",
"   .         $       ",
"   .         @       ",
"   .         $       ",
"   .         @       ",
"   .         @       ",
"   .%&%*=$@#@.       ",
"                     ",
"                     ",
"                     ",
"                     ",
"                     ",
"                     "};
