/* XPM */
static char * close_inactive_xpm[] = {
"21 22 2 1",
" 	c None",
".	c #9E9E9E",
"                     ",
"                     ",
"                     ",
"                     ",
"                     ",
"   ...........       ",
"   .         .       ",
"   .         .       ",
"   .         .       ",
"   .         .       ",
"   .         .       ",
"   .         .       ",
"   .         .       ",
"   .         .       ",
"   .         .       ",
"   ...........       ",
"                     ",
"                     ",
"                     ",
"                     ",
"                     ",
"                     "};
