/* XPM */
static char * hide_active_xpm[] = {
"21 22 2 1",
" 	c None",
".	c #9E9E9E",
"                     ",
"                     ",
"                     ",
"                     ",
"                     ",
"       ...........   ",
"       .         .   ",
"       .         .   ",
"       .         .   ",
"       ...........   ",
"       .         .   ",
"       ...........   ",
"       .         .   ",
"       .         .   ",
"       .         .   ",
"       ...........   ",
"                     ",
"                     ",
"                     ",
"                     ",
"                     ",
"                     "};
