/* XPM */
static char * hide_pressed_xpm[] = {
"17 22 2 1",
" 	c None",
".	c #212121",
"                 ",
"                 ",
"                 ",
"                 ",
"                 ",
"   ...........   ",
"   .         .   ",
"   .         .   ",
"   .         .   ",
"   ...........   ",
"   .         .   ",
"   ...........   ",
"   .         .   ",
"   .         .   ",
"   .         .   ",
"   ...........   ",
"                 ",
"                 ",
"                 ",
"                 ",
"                 ",
"                 "};
