/* XPM */
static char * hide_inactive_xpm[] = {
"16 22 2 1",
" 	c None",
".	c #212121",
"                ",
"                ",
"                ",
"                ",
"                ",
"    ........... ",
"    .         . ",
"    .         . ",
"    .         . ",
"    ........... ",
"    .         . ",
"    ........... ",
"    .         . ",
"    .         . ",
"    .         . ",
"    ........... ",
"                ",
"                ",
"                ",
"                ",
"                ",
"                "};
