/* XPM */
static char * left_active_xpm[] = {
"6 1 3 1",
" 	c None",
".	c #000000",
"+	c #313131",
".   +."};
