/* XPM */
static char * maximize_pressed_xpm[] = {
"17 22 2 1",
" 	c None",
".	c #212121",
"                 ",
"                 ",
"                 ",
"                 ",
"                 ",
"   ...........   ",
"   .     .   .   ",
"   .     .   .   ",
"   .     .   .   ",
"   .     .   .   ",
"   .     .   .   ",
"   .......   .   ",
"   .         .   ",
"   .         .   ",
"   .         .   ",
"   ...........   ",
"                 ",
"                 ",
"                 ",
"                 ",
"                 ",
"                 "};
