/* XPM */
static char *menu_inactive[] = {
/* columns rows colors chars-per-pixel */
"17 22 10 1 ",
"  c #8D8D8D",
". c #929292",
"X c #949494",
"o c #959595",
"O c #979797",
"+ c #989898",
"@ c #999999",
"# c #9A9A9A",
"$ c #9E9E9E",
"% c None",
/* pixels */
"%%%%%%%%%%%%%%%%%",
"%%%%%%%%%%%%%%%%%",
"%%%%%%%%%%%%%%%%%",
"%%%%%%%%%%%%%%%%%",
"%%%%%%%%%%%%%%%%%",
"%%%$$$$$$$$$$$%%%",
"%%%$%%%%%%%%%$%%%",
"%%%$%++%%%XX%$%%%",
"%%%$%+$%%%+X%$%%%",
"%%%$%%+X%X+%%$%%%",
"%%%$%%X+%+.%%$%%%",
"%%%$%%%+++%%%$%%%",
"%%%$%%%X$.%%%$%%%",
"%%%$%%%% %%%%$%%%",
"%%%$%%%%%%%%%$%%%",
"%%%$$$$$$$$$$$%%%",
"%%%%%%%%%%%%%%%%%",
"%%%%%%%%%%%%%%%%%",
"%%%%%%%%%%%%%%%%%",
"%%%%%%%%%%%%%%%%%",
"%%%%%%%%%%%%%%%%%",
"%%%%%%%%%%%%%%%%%"
};
