/* XPM */
static char * menu_pressed_xpm[] = {
"17 22 27 1",
" 	c None",
".	c #212121",
"+	c #282628",
"@	c #222223",
"#	c #232323",
"$	c #242425",
"%	c #252525",
"&	c #2D2D2D",
"*	c #232223",
"=	c #222222",
"-	c #262526",
";	c #2D2D2F",
">	c #242324",
",	c #232324",
"'	c #2F2F30",
")	c #242424",
"!	c #262627",
"~	c #303030",
"{	c #262626",
"]	c #272727",
"^	c #2F2F2F",
"/	c #2A2A2B",
"(	c #282829",
"_	c #3A3A3A",
":	c #292929",
"<	c #333334",
"[	c #363637",
"                 ",
"                 ",
"                 ",
"                 ",
"                 ",
"   ...........   ",
"   .         +   ",
"   . @#   $% &   ",
"   . *=   #- ;   ",
"   .  => %,  '   ",
"   .  )# #!  ~   ",
"   .   ##)   &   ",
"   .   {.]   ^   ",
"   .    /    ^   ",
"   .         &   ",
"   .(_:<[~&'&.   ",
"                 ",
"                 ",
"                 ",
"                 ",
"                 ",
"                 "};
