/* XPM */
static char *menu_pressed[] = {
/* columns rows colors chars-per-pixel */
"17 22 27 1 ",
"  c #858585",
". c #898988",
"X c #8C8C8B",
"o c #8F8F8F",
"O c #90908F",
"+ c #909090",
"@ c #929290",
"# c #929292",
"$ c #959594",
"% c #969696",
"& c #979796",
"* c #979997",
"= c #989898",
"- c #999998",
"; c #999999",
": c #999A99",
"> c #9A9A9A",
", c #9B9B9A",
"< c #9B9B9B",
"1 c #9B9C9B",
"2 c #9C9C9B",
"3 c #9C9C9C",
"4 c #9C9D9C",
"5 c #9D9D9C",
"6 c #9D9D9D",
"7 c #9E9E9E",
"8 c None",
/* pixels */
"88888888888888888",
"88888888888888888",
"88888888888888888",
"88888888888888888",
"88888888888888888",
"88877777777777888",
"8887888888888*888",
"8887877888>>8#888",
"88878778887>8#888",
"8887887>8>288O888",
"888788>787&88o888",
"888788877>888#888",
"8887888>7>888o888",
"88878888$8888#888",
"8887888888888#888",
"8887% %X.o#O#7888",
"88888888888888888",
"88888888888888888",
"88888888888888888",
"88888888888888888",
"88888888888888888",
"88888888888888888"
};
