/* XPM */
static char *right_inactive[] = {
/* columns rows colors chars-per-pixel */
"7 1 2 1 ",
"  c black",
". c None",
/* pixels */
" ....  "
};
