/* XPM */
static char *right_active[] = {
/* columns rows colors chars-per-pixel */
"7 1 3 1 ",
"  c black",
". c #606060",
"X c None",
/* pixels */
" .XX   "
};
