/* XPM */
static char *stick_pressed[] = {
/* columns rows colors chars-per-pixel */
"17 22 28 1 ",
"  c #858585",
". c #898988",
"X c #8C8C8B",
"o c #8F8F8F",
"O c #90908F",
"+ c #909090",
"@ c #929290",
"# c #929292",
"$ c #969696",
"% c #979796",
"& c #979797",
"* c #979897",
"= c #979997",
"- c #989898",
"; c #999999",
": c #999A99",
"> c #9A9A9A",
", c #9A9B9A",
"< c #9B9B9A",
"1 c #9B9B9B",
"2 c #9B9C9B",
"3 c #9C9C9B",
"4 c #9C9C9C",
"5 c #9C9D9C",
"6 c #9D9D9C",
"7 c #9D9D9D",
"8 c #9E9E9E",
"9 c None",
/* pixels */
"99999999999999999",
"99999999999999999",
"99999999999999999",
"99999999999999999",
"99999999999999999",
"99988888888888999",
"9998999999999=999",
"9998998838<99#999",
"999892839<8-9O999",
"9998988999<<9#999",
"99989299999$9o999",
"999898<999<<9#999",
"99989<8<9<8$9o999",
"999899<<=<*99#999",
"9998999999999#999",
"9998$ $X.o#O#8999",
"99999999999999999",
"99999999999999999",
"99999999999999999",
"99999999999999999",
"99999999999999999",
"99999999999999999"
};
