/* XPM */
static char * stick_pressed_xpm[] = {
"17 22 28 1",
" 	c None",
".	c #212121",
"+	c #282628",
"@	c #232323",
"#	c #222222",
"$	c #232324",
"%	c #222223",
"&	c #242425",
"*	c #2D2D2D",
"=	c #232223",
"-	c #262526",
";	c #2D2D2F",
">	c #242424",
",	c #2F2F30",
"'	c #242324",
")	c #272727",
"!	c #303030",
"~	c #252525",
"{	c #252425",
"]	c #262626",
"^	c #282829",
"/	c #2F2F2F",
"(	c #282728",
"_	c #282828",
":	c #3A3A3A",
"<	c #292929",
"[	c #333334",
"}	c #363637",
"                 ",
"                 ",
"                 ",
"                 ",
"                 ",
"   ...........   ",
"   .         +   ",
"   .  @#$%&  *   ",
"   . =.$ &.- ;   ",
"   . #@   -> ,   ",
"   . '     ) !   ",
"   . @~   ){ *   ",
"   . -.] ).^ /   ",
"   .  ]&(&_  /   ",
"   .         *   ",
"   .^:<[}!*,*.   ",
"                 ",
"                 ",
"                 ",
"                 ",
"                 ",
"                 "};
