/* XPM */
static char * stick_active_xpm[] = {
"17 22 11 1",
" 	c None",
".	c #212121",
"+	c #272727",
"@	c #252525",
"#	c #282828",
"$	c #262626",
"%	c #2A2A2A",
"&	c #2B2B2B",
"*	c #2D2D2D",
"=	c #292929",
"-	c #2F2F2F",
"                 ",
"                 ",
"                 ",
"                 ",
"                 ",
"   ...........   ",
"   .         .   ",
"   .  +@#$%  .   ",
"   . +.# %.& .   ",
"   . @#   &# .   ",
"   . #     * .   ",
"   . $%   *= .   ",
"   . %.& *.- .   ",
"   .  &#*=-  .   ",
"   .         .   ",
"   ...........   ",
"                 ",
"                 ",
"                 ",
"                 ",
"                 ",
"                 "};
