/* XPM */
static char *stick_active[] = {
/* columns rows colors chars-per-pixel */
"17 22 11 1 ",
"  c #909090",
". c #929292",
"X c #949494",
"o c #959595",
"O c #969696",
"+ c #979797",
"@ c #989898",
"# c #999999",
"$ c #9A9A9A",
"% c #9E9E9E",
"& c None",
/* pixels */
"&&&&&&&&&&&&&&&&&",
"&&&&&&&&&&&&&&&&&",
"&&&&&&&&&&&&&&&&&",
"&&&&&&&&&&&&&&&&&",
"&&&&&&&&&&&&&&&&&",
"&&&%%%%%%%%%%%&&&",
"&&&%&&&&&&&&&%&&&",
"&&&%&&@@@@O&&%&&&",
"&&&%&@%O&O%O&%&&&",
"&&&%&@@&&&OO&%&&&",
"&&&%&@&&&&&.&%&&&",
"&&&%&@O&&&.O&%&&&",
"&&&%&O%.&.%.&%&&&",
"&&&%&&OO.O &&%&&&",
"&&&%&&&&&&&&&%&&&",
"&&&%%%%%%%%%%%&&&",
"&&&&&&&&&&&&&&&&&",
"&&&&&&&&&&&&&&&&&",
"&&&&&&&&&&&&&&&&&",
"&&&&&&&&&&&&&&&&&",
"&&&&&&&&&&&&&&&&&",
"&&&&&&&&&&&&&&&&&"
};
