/* XPM */
static char * title_1_active_xpm[] = {
"1 22 4 1",
" 	c None",
".	c #000000",
"+	c #606060",
"@	c #313131",
".",
"+",
" ",
" ",
" ",
" ",
" ",
" ",
" ",
" ",
" ",
" ",
" ",
" ",
" ",
" ",
" ",
" ",
" ",
" ",
"@",
"."};
