/* XPM */
static char * title_2_active_xpm[] = {
"4 22 3 1",
" 	c None",
".	c #000000",
"+	c #313131",
"....",
"    ",
"    ",
"    ",
"    ",
"    ",
"    ",
"    ",
"    ",
"    ",
"    ",
"    ",
"    ",
"    ",
"    ",
"    ",
"    ",
"    ",
"    ",
"    ",
"++++",
"...."};
