/* XPM */
static char * title_5_active_xpm[] = {
"1 22 3 1",
" 	c None",
".	c #000000",
"+	c #313131",
".",
" ",
" ",
" ",
" ",
" ",
" ",
" ",
" ",
" ",
" ",
" ",
" ",
" ",
" ",
" ",
" ",
" ",
" ",
" ",
"+",
"."};
