/* XPM */
static char * top_right_active_xpm[] = {
"7 22 4 1",
" 	c None",
".	c #000000",
"+	c #606060",
"@	c #313131",
"...... ",
"++++ . ",
"    ...",
"    ...",
"    ...",
"    ...",
"    ...",
"    ...",
"    ...",
"    ...",
"    ...",
"    ...",
"    ...",
"    ...",
"    ...",
"    ...",
"    ...",
"    ...",
"    ...",
"    ...",
"@   ...",
".+  ..."};
