/* XPM */
static char *top_right_inactive[] = {
/* columns rows colors chars-per-pixel */
"7 22 2 1 ",
"  c black",
". c None",
/* pixels */
"      .",
"..... .",
".....  ",
".....  ",
".....  ",
".....  ",
".....  ",
".....  ",
".....  ",
".....  ",
".....  ",
".....  ",
".....  ",
".....  ",
".....  ",
".....  ",
".....  ",
".....  ",
".....  ",
".....  ",
".....  ",
" ....  "
};
