/* XPM */
static char * top_left_active_xpm[] = {
"6 22 3 1",
" 	c None",
".	c #000000",
"+	c #313131",
"......",
".     ",
".     ",
".     ",
".     ",
".     ",
".     ",
".     ",
".     ",
".     ",
".     ",
".     ",
".     ",
".     ",
".     ",
".     ",
".     ",
".     ",
".     ",
".     ",
".   ++",
".   +."};
