/* XPM */
static char * bottom_right_active_xpm[] = {
"6 6 4 1",
" 	c None",
".	c #CECECE",
"+	c #9C9C9C",
"@	c #000000",
"...+@@",
"...+@@",
"...+@@",
"++++@@",
"@@@@@@",
"@@@@@@"};
