/* XPM */
static char * bottom_inactive_xpm[] = {
"1 7 3 1",
" 	c None",
".	c #525252",
"+	c #DEDEDE",
".",
"+",
"+",
"+",
"+",
".",
"."};
