/* XPM */
static char * bottom_left_inactive_xpm[] = {
"6 7 3 1",
" 	c None",
".	c #525252",
"+	c #DEDEDE",
".++++.",
".+++++",
".+++++",
".+++++",
".+++++",
"......",
"  ...."};
