/* XPM */
static char * bottom_left_active_xpm[] = {
"6 7 5 1",
" 	c None",
".	c #000000",
"+	c #FFFFFF",
"@	c #CECECE",
"#	c #9C9C9C",
".+@@#.",
".+@@@+",
".+@@@@",
".+@@@@",
".@####",
"......",
"  ...."};
