/* XPM */
static char * close_pressed_xpm[] = {
"17 22 87 1",
" 	c None",
".	c #CECECE",
"+	c #8C8C8C",
"@	c #212121",
"#	c #FFFFFF",
"$	c #4B4A4D",
"%	c #47464C",
"&	c #4C4B51",
"*	c #504D54",
"=	c #545359",
"-	c #5A585E",
";	c #5F5E62",
">	c #626167",
",	c #747378",
"'	c #282628",
")	c #4A494C",
"!	c #535256",
"~	c #58575D",
"{	c #5F5D63",
"]	c #67666C",
"^	c #706E75",
"/	c #78767C",
"(	c #7F7D83",
"_	c #818084",
":	c #2D2D2D",
"<	c #4D4B4E",
"[	c #57555A",
"}	c #5E5D63",
"|	c #66646A",
"1	c #706F75",
"2	c #7A787E",
"3	c #838288",
"4	c #8B898F",
"5	c #8C8A8F",
"6	c #2D2D2F",
"7	c #4E4D51",
"8	c #5B595E",
"9	c #626066",
"0	c #6B696F",
"a	c #76747A",
"b	c #807F85",
"c	c #8A898F",
"d	c #939197",
"e	c #939196",
"f	c #2F2F30",
"g	c #59585B",
"h	c #6A686D",
"i	c #6F6D73",
"j	c #77757A",
"k	c #8A888E",
"l	c #939298",
"m	c #9B999F",
"n	c #969499",
"o	c #303030",
"p	c #636266",
"q	c #7A797D",
"r	c #7F7E82",
"s	c #8A888D",
"t	c #959499",
"u	c #A09EA3",
"v	c #A6A4A9",
"w	c #939295",
"x	c #686769",
"y	c #8A888C",
"z	c #939195",
"A	c #8E8D91",
"B	c #99979B",
"C	c #A1A0A3",
"D	c #A5A4A8",
"E	c #AEADB1",
"F	c #99979A",
"G	c #2F2F2F",
"H	c #6C696E",
"I	c #A4A3A6",
"J	c #A5A4A7",
"K	c #A9A8AB",
"L	c #AFADB1",
"M	c #9A999C",
"N	c #7D7C7F",
"O	c #929194",
"P	c #979699",
"Q	c #9C9B9E",
"R	c #282829",
"S	c #3A3A3A",
"T	c #292929",
"U	c #333334",
"V	c #363637",
"                 ",
"                 ",
".................",
".................",
"..++++++++++++...",
"..+@@@@@@@@@@@#..",
"..+@$%&*=-;>,'#..",
"..+@)!~{]^/(_:#..",
"..+@<[}|123456#..",
"..+@7890abcdef#..",
"..+@ghij(klmno#..",
"..+@pqr_stuvw:#..",
"..+@xyzABCDEFG#..",
"..+@HyzIIJKLMG#..",
"..+@NOOOOOOPQ:#..",
"..+@RSTUVo:f:@#..",
"...############..",
".................",
".................",
".................",
"                 ",
"                 "};
