/* XPM */
static char * close_active_xpm[] = {
"21 22 10 1",
" 	c None",
".	c #CECECE",
"+	c #8C8C8C",
"@	c #212121",
"#	c #FFFFFF",
"$	c #9C9C9C",
"%	c #ADADAD",
"&	c #BDBDBD",
"*	c #DEDEDE",
"=	c #EFEFEF",
"                     ",
"                     ",
".....................",
".....................",
"..++++++++++++.......",
"..+@@@@@@@@@@@#......",
"..+@#........@#......",
"..+@.$$%%&&.+@#......",
"..+@.$%%&&..+@#......",
"..+@.%%&&..*+@#......",
"..+@.%&&..**+@#......",
"..+@.&&..**=+@#......",
"..+@.&..**==+@#......",
"..+@...**==#+@#......",
"..+@.++++++++@#......",
"..+@@@@@@@@@@@#......",
"...############......",
".....................",
".....................",
".....................",
"                     ",
"                     "};
