/* XPM */
static char * hide_pressed_xpm[] = {
"16 22 59 1",
" 	c None",
".	c #CECECE",
"+	c #8C8C8C",
"@	c #212121",
"#	c #FFFFFF",
"$	c #4B4A4D",
"%	c #47464C",
"&	c #4C4B51",
"*	c #504D54",
"=	c #545359",
"-	c #5A585E",
";	c #5F5E62",
">	c #626167",
",	c #747378",
"'	c #4A494C",
")	c #535256",
"!	c #58575D",
"~	c #5F5D63",
"{	c #67666C",
"]	c #706E75",
"^	c #78767C",
"/	c #7F7D83",
"(	c #818084",
"_	c #4D4B4E",
":	c #57555A",
"<	c #5E5D63",
"[	c #66646A",
"}	c #706F75",
"|	c #7A787E",
"1	c #838288",
"2	c #8B898F",
"3	c #8C8A8F",
"4	c #59585B",
"5	c #6A686D",
"6	c #6F6D73",
"7	c #77757A",
"8	c #8A888E",
"9	c #939298",
"0	c #9B999F",
"a	c #969499",
"b	c #686769",
"c	c #8A888C",
"d	c #939195",
"e	c #8E8D91",
"f	c #99979B",
"g	c #A1A0A3",
"h	c #A5A4A8",
"i	c #AEADB1",
"j	c #99979A",
"k	c #6C696E",
"l	c #A4A3A6",
"m	c #A5A4A7",
"n	c #A9A8AB",
"o	c #AFADB1",
"p	c #9A999C",
"q	c #7D7C7F",
"r	c #929194",
"s	c #979699",
"t	c #9C9B9E",
"                ",
"                ",
"................",
"................",
"...++++++++++++.",
"...+@@@@@@@@@@@#",
"...+@$%&*=-;>,@#",
"...+@')!~{]^/(@#",
"...+@_:<[}|123@#",
"...+@@@@@@@@@@@#",
"...+@4567/890a@#",
"...+@@@@@@@@@@@#",
"...+@bcdefghij@#",
"...+@kcdllmnop@#",
"...+@qrrrrrrst@#",
"...+@@@@@@@@@@@#",
"....############",
"................",
"................",
"................",
"                ",
"                "};
