/* XPM */
static char * maximize_pressed_xpm[] = {
"17 22 66 1",
" 	c None",
".	c #CECECE",
"+	c #8C8C8C",
"@	c #212121",
"#	c #FFFFFF",
"$	c #3B3A3E",
"%	c #3F3E44",
"&	c #44434A",
"*	c #49464D",
"=	c #4D4C52",
"-	c #59585D",
";	c #5D5B62",
">	c #5F5E64",
",	c #424144",
"'	c #535256",
")	c #58575D",
"!	c #5F5D63",
"~	c #67666C",
"{	c #78767C",
"]	c #7F7D83",
"^	c #79787C",
"/	c #454347",
"(	c #57555A",
"_	c #5E5D63",
":	c #66646A",
"<	c #706F75",
"[	c #838288",
"}	c #8B898F",
"|	c #858388",
"1	c #47464A",
"2	c #5B595E",
"3	c #626066",
"4	c #6B696F",
"5	c #76747A",
"6	c #8A898F",
"7	c #939197",
"8	c #8D8B90",
"9	c #525154",
"0	c #6A686D",
"a	c #6F6D73",
"b	c #77757A",
"c	c #939298",
"d	c #9B999F",
"e	c #908E94",
"f	c #A09EA3",
"g	c #A6A4A9",
"h	c #8D8C8F",
"i	c #636265",
"j	c #8A888C",
"k	c #939195",
"l	c #8E8D91",
"m	c #99979B",
"n	c #A1A0A3",
"o	c #A5A4A8",
"p	c #AEADB1",
"q	c #949195",
"r	c #68656A",
"s	c #A4A3A6",
"t	c #A5A4A7",
"u	c #A9A8AB",
"v	c #AFADB1",
"w	c #959497",
"x	c #6B696D",
"y	c #8C8B8E",
"z	c #919094",
"A	c #88878A",
"                 ",
"                 ",
".................",
".................",
"....++++++++++++.",
"....+@@@@@@@@@@@#",
"....+@$%&*=@-;>@#",
"....+@,')!~@{]^@#",
"....+@/(_:<@[}|@#",
"....+@12345@678@#",
"....+@90ab]@cde@#",
"....+@@@@@@@fgh@#",
"....+@ijklmnopq@#",
"....+@rjksstuvw@#",
"....+@xyyyyyyzA@#",
"....+@@@@@@@@@@@#",
".....############",
".................",
".................",
".................",
"                 ",
"                 "};
