/* XPM */
static char * maximize_inactive_xpm[] = {
"17 22 10 1",
" 	c None",
".	c #DEDEDE",
"+	c #8C8C8C",
"@	c #212121",
"#	c #FFFFFF",
"$	c #CECECE",
"%	c #9C9C9C",
"&	c #ADADAD",
"*	c #BDBDBD",
"=	c #EFEFEF",
"                 ",
"                 ",
".................",
".................",
"..++++++++++++...",
"..+@@@@@@@@@@@#..",
"..+@#$$$$@$$$@#..",
"..+@$%%&&@*$+@#..",
"..+@$%&&*@$$+@#..",
"..+@$&&**@$.+@#..",
"..+@$&**$@..+@#..",
"..+@@@@@@@.=+@#..",
"..+@$*$$..==+@#..",
"..+@$$$..==#+@#..",
"..+@$++++++++@#..",
"..+@@@@@@@@@@@#..",
"...############..",
".................",
".................",
".................",
"                 ",
"                 "};
