/* XPM */
static char * menu_inactive_xpm[] = {
"17 22 25 1",
" 	c None",
".	c #DEDEDE",
"+	c #8C8C8C",
"@	c #212121",
"#	c #FFFFFF",
"$	c #CDCDCD",
"%	c #CECECE",
"&	c #272727",
"*	c #ACACAC",
"=	c #ADADAD",
"-	c #BCBCBC",
";	c #2A2A2A",
">	c #2B2B2B",
",	c #252525",
"'	c #BDBDBD",
")	c #DCDCDC",
"!	c #262626",
"~	c #CCCCCC",
"{	c #2D2D2D",
"]	c #DDDDDD",
"^	c #282828",
"/	c #EFEFEF",
"(	c #EEEEEE",
"_	c #323232",
":	c #EDEDED",
"                 ",
"                 ",
".................",
".................",
"..++++++++++++...",
"..+@@@@@@@@@@@#..",
"..+@#$$%%%$$%@#..",
"..+@$&&*=-;>+@#..",
"..+@$&,*'-&>+@#..",
"..+@%*,;->&)+@#..",
"..+@%*;!~&{]+@#..",
"..+@%'-&&^)/+@#..",
"..+@%'$>@{(/+@#..",
"..+@%%%)_:/#+@#..",
"..+@%++++++++@#..",
"..+@@@@@@@@@@@#..",
"...############..",
".................",
".................",
".................",
"                 ",
"                 "};
