/* XPM */
static char * menu_pressed_xpm[] = {
"17 22 82 1",
" 	c None",
".	c #CECECE",
"+	c #8C8C8C",
"@	c #212121",
"#	c #FFFFFF",
"$	c #4B4A4D",
"%	c #47464C",
"&	c #4C4B51",
"*	c #504D54",
"=	c #545359",
"-	c #5A585E",
";	c #5F5E62",
">	c #626167",
",	c #747378",
"'	c #282628",
")	c #4A494C",
"!	c #222223",
"~	c #232323",
"{	c #5F5D63",
"]	c #67666C",
"^	c #706E75",
"/	c #242425",
"(	c #252525",
"_	c #818084",
":	c #2D2D2D",
"<	c #4D4B4E",
"[	c #232223",
"}	c #222222",
"|	c #656369",
"1	c #706F75",
"2	c #79777D",
"3	c #262526",
"4	c #8C8A8F",
"5	c #2D2D2F",
"6	c #4E4D51",
"7	c #5A585D",
"8	c #242324",
"9	c #757379",
"0	c #232324",
"a	c #929096",
"b	c #939196",
"c	c #2F2F30",
"d	c #59585B",
"e	c #6A686D",
"f	c #242424",
"g	c #7E7C82",
"h	c #262627",
"i	c #9A989E",
"j	c #969499",
"k	c #303030",
"l	c #636266",
"m	c #7A797D",
"n	c #7E7D81",
"o	c #9F9DA2",
"p	c #A6A4A9",
"q	c #939295",
"r	c #686769",
"s	c #8A888C",
"t	c #929194",
"u	c #262626",
"v	c #272727",
"w	c #A4A3A7",
"x	c #AEADB1",
"y	c #99979A",
"z	c #2F2F2F",
"A	c #6C696E",
"B	c #939195",
"C	c #A3A2A5",
"D	c #2A2A2B",
"E	c #A4A3A6",
"F	c #A9A8AB",
"G	c #AFADB1",
"H	c #9A999C",
"I	c #7D7C7F",
"J	c #929193",
"K	c #979699",
"L	c #9C9B9E",
"M	c #282829",
"N	c #3A3A3A",
"O	c #292929",
"P	c #333334",
"Q	c #363637",
"                 ",
"                 ",
".................",
".................",
"..++++++++++++...",
"..+@@@@@@@@@@@#..",
"..+@$%&*=-;>,'#..",
"..+@)!~{]^/(_:#..",
"..+@<[}|12~345#..",
"..+@67}89(0abc#..",
"..+@def~g~hijk#..",
"..+@lmn~~fopq:#..",
"..+@rstu@vwxyz#..",
"..+@AsBCDEFGHz#..",
"..+@ItttJttKL:#..",
"..+@MNOPQk:c:@#..",
"...############..",
".................",
".................",
".................",
"                 ",
"                 "};
