/* XPM */
static char * menu_active_xpm[] = {
"17 22 24 1",
" 	c None",
".	c #CECECE",
"+	c #8C8C8C",
"@	c #212121",
"#	c #FFFFFF",
"$	c #CDCDCD",
"%	c #272727",
"&	c #ACACAC",
"*	c #ADADAD",
"=	c #BCBCBC",
"-	c #2A2A2A",
";	c #2B2B2B",
">	c #252525",
",	c #BDBDBD",
"'	c #DCDCDC",
")	c #262626",
"!	c #CCCCCC",
"~	c #2D2D2D",
"{	c #DDDDDD",
"]	c #282828",
"^	c #EFEFEF",
"/	c #EEEEEE",
"(	c #323232",
"_	c #EDEDED",
"                 ",
"                 ",
".................",
".................",
"..++++++++++++...",
"..+@@@@@@@@@@@#..",
"..+@#$$...$$.@#..",
"..+@$%%&*=-;+@#..",
"..+@$%>&,=%;+@#..",
"..+@.&>-=;%'+@#..",
"..+@.&-)!%~{+@#..",
"..+@.,=%%]'^+@#..",
"..+@.,$;@~/^+@#..",
"..+@...'(_^#+@#..",
"..+@.++++++++@#..",
"..+@@@@@@@@@@@#..",
"...############..",
".................",
".................",
".................",
"                 ",
"                 "};
