/* XPM */
static char * right_active_xpm[] = {
"7 1 5 1",
" 	c None",
".	c #000000",
"+	c #FFFFFF",
"@	c #CECECE",
"#	c #9C9C9C",
".+@@#.."};
