/* XPM */
static char * stick_pressed_xpm[] = {
"17 22 76 1",
" 	c None",
".	c #CECECE",
"+	c #8C8C8C",
"@	c #212121",
"#	c #FFFFFF",
"$	c #4B4A4D",
"%	c #47464C",
"&	c #4C4B51",
"*	c #504D54",
"=	c #545359",
"-	c #5A585E",
";	c #5F5E62",
">	c #626167",
",	c #747378",
"'	c #282628",
")	c #4A494C",
"!	c #525155",
"~	c #232323",
"{	c #222222",
"]	c #232324",
"^	c #222223",
"/	c #242425",
"(	c #7E7C82",
"_	c #818084",
":	c #2D2D2D",
"<	c #4D4B4E",
"[	c #232223",
"}	c #6F6E74",
"|	c #262526",
"1	c #8C8A8F",
"2	c #2D2D2F",
"3	c #4E4D51",
"4	c #6A686E",
"5	c #76747A",
"6	c #7F7E84",
"7	c #242424",
"8	c #929195",
"9	c #2F2F30",
"0	c #59585B",
"a	c #242324",
"b	c #6E6C72",
"c	c #77757A",
"d	c #7F7D83",
"e	c #8A888E",
"f	c #919196",
"g	c #272727",
"h	c #959398",
"i	c #303030",
"j	c #636266",
"k	c #252525",
"l	c #807F83",
"m	c #8A888D",
"n	c #949398",
"o	c #252425",
"p	c #929294",
"q	c #686769",
"r	c #262626",
"s	c #979599",
"t	c #282829",
"u	c #989699",
"v	c #2F2F2F",
"w	c #6C696E",
"x	c #89878B",
"y	c #282728",
"z	c #282828",
"A	c #AEACB0",
"B	c #9A999C",
"C	c #7D7C7F",
"D	c #929194",
"E	c #929193",
"F	c #979699",
"G	c #9C9B9E",
"H	c #3A3A3A",
"I	c #292929",
"J	c #333334",
"K	c #363637",
"                 ",
"                 ",
".................",
".................",
"..++++++++++++...",
"..+@@@@@@@@@@@#..",
"..+@$%&*=-;>,'#..",
"..+@)!~{]^/(_:#..",
"..+@<[@]}/@|12#..",
"..+@3{~456|789#..",
"..+@0abcdefghi#..",
"..+@j~klmngop:#..",
"..+@q|@rsg@tuv#..",
"..+@wxr/y/zABv#..",
"..+@CDEEEEEFG:#..",
"..+@tHIJKi:9:@#..",
"...############..",
".................",
".................",
".................",
"                 ",
"                 "};
