/* XPM */
static char * stick_inactive_xpm[] = {
"17 22 22 1",
" 	c None",
".	c #DEDEDE",
"+	c #8C8C8C",
"@	c #212121",
"#	c #FFFFFF",
"$	c #CECECE",
"%	c #CDCDCD",
"&	c #9B9B9B",
"*	c #272727",
"=	c #252525",
"-	c #282828",
";	c #262626",
">	c #2A2A2A",
",	c #BBBBBB",
"'	c #2B2B2B",
")	c #BCBCBC",
"!	c #BDBDBD",
"~	c #DCDCDC",
"{	c #2D2D2D",
"]	c #292929",
"^	c #2F2F2F",
"/	c #FDFDFD",
"                 ",
"                 ",
".................",
".................",
"..++++++++++++...",
"..+@@@@@@@@@@@#..",
"..+@#$%%%%%$$@#..",
"..+@$&*=-;>%+@#..",
"..+@%*@-,>@'+@#..",
"..+@%=-)!%'-+@#..",
"..+@%-,!$$~{+@#..",
"..+@%;>%$~{]+@#..",
"..+@%>@'~{@^+@#..",
"..+@$%'-{]^/+@#..",
"..+@$++++++++@#..",
"..+@@@@@@@@@@@#..",
"...############..",
".................",
".................",
".................",
"                 ",
"                 "};
