/* XPM */
static char * title_2_active_xpm[] = {
"1 22 6 1",
" 	c None",
".	c #000000",
"+	c #FFFFFF",
"@	c #CECECE",
"#	c #737373",
"$	c #9C9C9C",
".",
"+",
"@",
"@",
"+",
"#",
"+",
"#",
"+",
"#",
"+",
"#",
"+",
"#",
"+",
"#",
"@",
"@",
"@",
"@",
"$",
"."};
