/* XPM */
static char * top_left_inactive_xpm[] = {
"6 22 3 1",
" 	c None",
".	c #525252",
"+	c #DEDEDE",
"......",
".+++++",
".+++++",
".+++++",
".+++++",
".+++++",
".+++++",
".+++++",
".+++++",
".+++++",
".+++++",
".+++++",
".+++++",
".+++++",
".+++++",
".+++++",
".+++++",
".+++++",
".+++++",
".+++++",
".+++++",
".++++."};
