/* XPM */
static char * top_right_active_xpm[] = {
"7 22 5 1",
" 	c None",
".	c #000000",
"+	c #FFFFFF",
"@	c #CECECE",
"#	c #9C9C9C",
"...... ",
"++++@. ",
"@@@@#..",
"@@@@#..",
"@@@@#..",
"@@@@#..",
"@@@@#..",
"@@@@#..",
"@@@@#..",
"@@@@#..",
"@@@@#..",
"@@@@#..",
"@@@@#..",
"@@@@#..",
"@@@@#..",
"@@@@#..",
"@@@@#..",
"@@@@#..",
"@@@@#..",
"@@@@#..",
"#@@@#..",
".+@@#.."};
