/* XPM */
static char * top_right_inactive_xpm[] = {
"7 22 4 1",
" 	c None",
".	c #525252",
"+	c #DEDEDE",
"@	c #525A52",
"...... ",
"+++++. ",
"+++++..",
"+++++..",
"+++++..",
"+++++..",
"+++++..",
"+++++..",
"+++++..",
"+++++..",
"+++++..",
"+++++..",
"+++++@.",
"+++++@.",
"+++++@.",
"+++++@.",
"+++++..",
"+++++..",
"+++++..",
"+++++..",
"+++++..",
".++++.."};
